<svg width="36" height="31" xmlns="http://www.w3.org/2000/svg"><g fill="none"><path d="M24.332.035C24.15-.056 24 .036 24 .241v25.147l11.003 5.506c.548.274.997-.003.997-.616V6.07c0-.12-.068-.23-.176-.284L24.332.036" fill="#32FC8D"/><path d="M12 19.118L23.862.188a.42.42 0 0 1 .53-.148L35.85 5.666c.142.07.193.246.11.38L24.058 25.037 12 19.118" fill="#0BE370"/><path d="M.779.163C.03-.203-.224.068.215.765L11.71 19.03 24 25.039 11.788 5.632a.528.528 0 0 0-.215-.192L.78.163" fill="#14C767"/><path d="M12 30.274c0 .617-.449.895-.997.62L.665 25.698c-.366-.183-.665-.67-.665-1.08V.484C0 .073.3-.113.665.07l11.187 5.622a.27.27 0 0 1 .148.24v24.341" fill="#00AB6C"/></g></svg>